<mxfile host="65bd71144e">
    <diagram id="F6H4Nej6vFThYpVVGYPW" name="Page-1">
        <mxGraphModel dx="1076" dy="750" grid="1" gridSize="10" guides="1" tooltips="1" connect="1" arrows="1" fold="1" page="1" pageScale="1" pageWidth="1100" pageHeight="850" math="0" shadow="0">
            <root>
                <mxCell id="0"/>
                <mxCell id="1" parent="0"/>
                <mxCell id="4" style="edgeStyle=none;html=1;entryX=0.5;entryY=0;entryDx=0;entryDy=0;fontSize=23;sketch=1;curveFitting=1;jiggle=2;" parent="1" source="2" target="3" edge="1">
                    <mxGeometry relative="1" as="geometry"/>
                </mxCell>
                <mxCell id="12" style="edgeStyle=none;html=1;fontSize=23;fontColor=#FFFFFF;sketch=1;curveFitting=1;jiggle=2;" parent="1" source="2" target="9" edge="1">
                    <mxGeometry relative="1" as="geometry">
                        <Array as="points">
                            <mxPoint x="200" y="80"/>
                        </Array>
                    </mxGeometry>
                </mxCell>
                <mxCell id="2" value="Basic" style="rounded=0;whiteSpace=wrap;html=1;strokeWidth=1;fontSize=27;fontStyle=1;sketch=1;curveFitting=1;jiggle=2;fillStyle=hachure;fillColor=#FFFFFF;fontColor=#050505;" parent="1" vertex="1">
                    <mxGeometry x="270" y="40" width="310" height="60" as="geometry"/>
                </mxCell>
                <mxCell id="6" style="edgeStyle=none;html=1;fontSize=23;fillColor=#60a917;strokeColor=#2D7600;sketch=1;curveFitting=1;jiggle=2;" parent="1" source="3" target="5" edge="1">
                    <mxGeometry relative="1" as="geometry">
                        <Array as="points">
                            <mxPoint x="580" y="280"/>
                        </Array>
                    </mxGeometry>
                </mxCell>
                <mxCell id="17" style="edgeStyle=none;html=1;fontSize=23;fontColor=#FFFFFF;fillColor=#0050ef;strokeColor=#001DBC;sketch=1;curveFitting=1;jiggle=2;" parent="1" source="3" target="16" edge="1">
                    <mxGeometry relative="1" as="geometry">
                        <Array as="points">
                            <mxPoint x="550" y="230"/>
                        </Array>
                    </mxGeometry>
                </mxCell>
                <mxCell id="3" value="&lt;font style=&quot;font-size: 23px;&quot;&gt;&lt;b&gt;HTML&lt;/b&gt;&lt;/font&gt;" style="rounded=0;whiteSpace=wrap;html=1;strokeWidth=1;fontSize=27;fillColor=#60a917;fontColor=#ffffff;strokeColor=#2D7600;sketch=1;curveFitting=1;jiggle=2;" parent="1" vertex="1">
                    <mxGeometry x="350" y="240" width="120" height="60" as="geometry"/>
                </mxCell>
                <mxCell id="8" style="edgeStyle=none;html=1;fontSize=23;entryX=0.5;entryY=0;entryDx=0;entryDy=0;fontColor=#521414;fillColor=#60a917;strokeColor=#2D7600;sketch=1;curveFitting=1;jiggle=2;" parent="1" source="5" target="7" edge="1">
                    <mxGeometry relative="1" as="geometry">
                        <mxPoint x="720" y="390" as="targetPoint"/>
                        <Array as="points">
                            <mxPoint x="590" y="550"/>
                        </Array>
                    </mxGeometry>
                </mxCell>
                <mxCell id="20" style="edgeStyle=none;html=1;fontSize=23;fontColor=#FFFFFF;fillColor=#0050ef;strokeColor=#001DBC;sketch=1;curveFitting=1;jiggle=2;" parent="1" source="5" target="19" edge="1">
                    <mxGeometry relative="1" as="geometry">
                        <Array as="points">
                            <mxPoint x="740" y="390"/>
                        </Array>
                    </mxGeometry>
                </mxCell>
                <mxCell id="5" value="Mainpage" style="rounded=0;whiteSpace=wrap;html=1;strokeWidth=1;fontSize=23;sketch=1;curveFitting=1;jiggle=2;" parent="1" vertex="1">
                    <mxGeometry x="520" y="360" width="120" height="60" as="geometry"/>
                </mxCell>
                <mxCell id="15" style="edgeStyle=none;html=1;entryX=0.477;entryY=0.02;entryDx=0;entryDy=0;entryPerimeter=0;fontSize=23;fontColor=#FFFFFF;fillColor=#a20025;strokeColor=#6F0000;sketch=1;curveFitting=1;jiggle=2;" parent="1" source="7" target="14" edge="1">
                    <mxGeometry relative="1" as="geometry"/>
                </mxCell>
                <mxCell id="7" value="&quot;Lets Start&quot;&lt;br&gt;button" style="whiteSpace=wrap;html=1;strokeWidth=1;fontSize=23;sketch=1;curveFitting=1;jiggle=2;" parent="1" vertex="1">
                    <mxGeometry x="390" y="540" width="120" height="60" as="geometry"/>
                </mxCell>
                <mxCell id="13" style="edgeStyle=none;html=1;entryX=0;entryY=0.5;entryDx=0;entryDy=0;fontSize=23;fontColor=#FFFFFF;fillColor=#a20025;strokeColor=#6F0000;startArrow=none;sketch=1;curveFitting=1;jiggle=2;" parent="1" source="22" target="7" edge="1">
                    <mxGeometry relative="1" as="geometry">
                        <Array as="points">
                            <mxPoint x="230" y="540"/>
                        </Array>
                    </mxGeometry>
                </mxCell>
                <mxCell id="9" value="&lt;font color=&quot;#ffffff&quot;&gt;Javascript&lt;/font&gt;" style="whiteSpace=wrap;html=1;strokeWidth=1;fontSize=23;fontColor=#ffffff;fillColor=#a20025;strokeColor=#6F0000;sketch=1;curveFitting=1;jiggle=2;" parent="1" vertex="1">
                    <mxGeometry x="90" y="230" width="120" height="60" as="geometry"/>
                </mxCell>
                <mxCell id="14" value="Takes you to Login/Register Page" style="whiteSpace=wrap;html=1;strokeWidth=1;fontSize=23;fontColor=#FFFFFF;sketch=1;curveFitting=1;jiggle=2;" parent="1" vertex="1">
                    <mxGeometry x="350" y="670" width="210" height="60" as="geometry"/>
                </mxCell>
                <mxCell id="18" style="edgeStyle=none;html=1;fontSize=23;fontColor=#FFFFFF;fillColor=#0050ef;strokeColor=#001DBC;sketch=1;curveFitting=1;jiggle=2;" parent="1" source="16" target="5" edge="1">
                    <mxGeometry relative="1" as="geometry"/>
                </mxCell>
                <mxCell id="16" value="CSS" style="whiteSpace=wrap;html=1;strokeWidth=1;fontSize=23;fontColor=#ffffff;fillColor=#0050ef;strokeColor=#001DBC;sketch=1;curveFitting=1;jiggle=2;" parent="1" vertex="1">
                    <mxGeometry x="610" y="120" width="120" height="60" as="geometry"/>
                </mxCell>
                <mxCell id="19" value="Colors" style="whiteSpace=wrap;html=1;strokeWidth=1;fontSize=23;fontColor=#FFFFFF;sketch=1;curveFitting=1;jiggle=2;" parent="1" vertex="1">
                    <mxGeometry x="670" y="470" width="120" height="60" as="geometry"/>
                </mxCell>
                <mxCell id="23" value="" style="edgeStyle=none;html=1;entryX=0.5;entryY=0;entryDx=0;entryDy=0;fontSize=23;fontColor=#FFFFFF;fillColor=#a20025;strokeColor=#6F0000;endArrow=none;sketch=1;curveFitting=1;jiggle=2;" parent="1" source="9" target="22" edge="1">
                    <mxGeometry relative="1" as="geometry">
                        <mxPoint x="203.33333333333326" y="300" as="sourcePoint"/>
                        <mxPoint x="390" y="570" as="targetPoint"/>
                        <Array as="points"/>
                    </mxGeometry>
                </mxCell>
                <mxCell id="22" value="" style="shape=image;html=1;verticalLabelPosition=bottom;verticalAlign=top;imageAspect=0;image=img/clipart/Gear_128x128.png;strokeWidth=1;fontSize=23;fontColor=#FFFFFF;sketch=1;curveFitting=1;jiggle=2;" parent="1" vertex="1">
                    <mxGeometry x="200" y="400" width="50" height="60" as="geometry"/>
                </mxCell>
                <mxCell id="25" style="edgeStyle=none;html=1;entryX=0;entryY=0.5;entryDx=0;entryDy=0;fontSize=23;fontColor=#FFFFFF;fillColor=#a20025;strokeColor=#6F0000;sketch=1;curveFitting=1;jiggle=2;" parent="1" source="24" target="22" edge="1">
                    <mxGeometry relative="1" as="geometry"/>
                </mxCell>
                <UserObject label="Makes it work" placeholders="1" name="Variable" id="24">
                    <mxCell style="text;html=1;strokeColor=none;fillColor=none;align=center;verticalAlign=middle;whiteSpace=wrap;overflow=hidden;strokeWidth=1;fontSize=23;fontColor=#FFFFFF;sketch=1;curveFitting=1;jiggle=2;" parent="1" vertex="1">
                        <mxGeometry x="50" y="420" width="80" height="60" as="geometry"/>
                    </mxCell>
                </UserObject>
            </root>
        </mxGraphModel>
    </diagram>
</mxfile>